<svg xmlns="http://www.w3.org/2000/svg" width="10" height="10" viewBox="0 0 10 10" fill="none">
  <path d="M1.38889 0C0.624252 0 0 0.624252 0 1.38889V8.61111C0 9.37575 0.624252 10 1.38889 10H8.61111C9.37575 10 10 9.37575 10 8.61111V1.38889C10 0.624252 9.37575 0 8.61111 0H1.38889ZM7.77778 1.11111C8.38814 1.11111 8.88889 1.61186 8.88889 2.22222C8.88889 2.83258 8.38814 3.33333 7.77778 3.33333C7.16742 3.33333 6.66667 2.83258 6.66667 2.22222C6.66667 1.61186 7.16742 1.11111 7.77778 1.11111ZM4.04188 3.33333C4.22978 3.33333 4.41802 3.42081 4.52583 3.59592L5.60764 5.35482L6.03407 4.70595C6.14102 4.54333 6.32353 4.44506 6.51801 4.44444H6.51912C6.71433 4.44437 6.89788 4.54272 7.00523 4.70595L8.79885 7.43924C8.79885 7.4396 8.79885 7.43996 8.79885 7.44035C9.04194 7.81132 8.76039 8.33253 8.31708 8.33336C6.10979 8.33336 3.90226 8.33336 1.69488 8.33336C1.24888 8.33336 0.960866 7.81683 1.19466 7.43709L3.55794 3.59592C3.66575 3.42081 3.85399 3.33333 4.04188 3.33333Z" fill="#D83C38"/>
</svg>