<svg xmlns="http://www.w3.org/2000/svg" width="16" height="16" viewBox="0 0 16 16" fill="none">
  <g clip-path="url(#clip0_5539_7634)">
    <path d="M11.7719 3.03418H13.7912C14.4006 3.03418 14.8947 3.52821 14.8947 4.13763V11.5859C14.8947 12.1953 14.4006 12.6894 13.7912 12.6894H11.0326C10.8591 12.6899 10.6958 12.7716 10.5912 12.91L8.42294 15.8011C8.31775 15.9269 8.16215 15.9997 7.99811 15.9997C7.83407 15.9997 7.67848 15.9269 7.57329 15.8011L5.40501 12.91C5.30045 12.7716 5.13716 12.6899 4.96363 12.6894H2.20501C1.59559 12.6894 1.10156 12.1953 1.10156 11.5859V4.13763C1.10156 3.52821 1.59559 3.03418 2.20501 3.03418H11.7719Z" fill="#4482C3"/>
    <path d="M7.1743 12.414C7.02195 12.414 6.89844 12.2905 6.89844 12.1381V11.5864C6.89844 11.4341 7.02195 11.3105 7.1743 11.3105C7.32665 11.3105 7.45016 11.4341 7.45016 11.5864V12.1381C7.45016 12.2905 7.32665 12.414 7.1743 12.414Z" fill="#464F5D"/>
    <path d="M8.82274 12.414C8.67038 12.414 8.54688 12.2905 8.54688 12.1381V11.5864C8.54688 11.4341 8.67038 11.3105 8.82274 11.3105C8.97509 11.3105 9.0986 11.4341 9.0986 11.5864V12.1381C9.0986 12.2905 8.97509 12.414 8.82274 12.414Z" fill="#464F5D"/>
    <path d="M3.58495 1.65526C3.52229 1.65529 3.46148 1.63399 3.41254 1.59485L2.03323 0.491401C1.91424 0.39618 1.89497 0.222528 1.99019 0.103539C2.08541 -0.0154496 2.25907 -0.0347168 2.37805 0.0605047L3.75736 1.16395C3.84889 1.23714 3.88418 1.36017 3.84538 1.47075C3.80657 1.58133 3.70214 1.65532 3.58495 1.65526Z" fill="#F3D55B"/>
    <path d="M12.4088 1.65526C12.2916 1.65532 12.1872 1.58133 12.1484 1.47075C12.1096 1.36017 12.1449 1.23714 12.2364 1.16395L13.6157 0.0605047C13.7347 -0.0347168 13.9084 -0.0154496 14.0036 0.103539C14.0988 0.222528 14.0795 0.39618 13.9605 0.491401L12.5812 1.59485C12.5323 1.63399 12.4715 1.65529 12.4088 1.65526Z" fill="#F3D55B"/>
    <path d="M2.20569 9.65526C2.0885 9.65531 1.98407 9.58132 1.94527 9.47074C1.90646 9.36016 1.94176 9.23714 2.03328 9.16395L3.41259 8.0605C3.48956 7.9989 3.59355 7.98305 3.68538 8.01891C3.77721 8.05477 3.84294 8.1369 3.8578 8.23436C3.87265 8.33181 3.83439 8.4298 3.75742 8.49139L2.37811 9.59484C2.32917 9.63398 2.26836 9.65529 2.20569 9.65526Z" fill="#F3D55B"/>
    <path d="M13.7881 9.65526C13.7254 9.65529 13.6646 9.63399 13.6157 9.59485L12.2364 8.4914C12.1174 8.39618 12.0981 8.22253 12.1933 8.10354C12.2885 7.98455 12.4622 7.96528 12.5812 8.0605L13.9605 9.16395C14.052 9.23714 14.0873 9.36017 14.0485 9.47075C14.0097 9.58133 13.9053 9.65532 13.7881 9.65526Z" fill="#F3D55B"/>
    <path d="M3.03314 4.68942H2.20555C2.0532 4.68942 1.92969 4.56591 1.92969 4.41356C1.92969 4.2612 2.0532 4.1377 2.20555 4.1377H3.03314C3.18549 4.1377 3.309 4.2612 3.309 4.41356C3.309 4.56591 3.18549 4.68942 3.03314 4.68942Z" fill="#F3D55B"/>
    <path d="M13.7909 4.68942H12.9634C12.811 4.68942 12.6875 4.56591 12.6875 4.41356C12.6875 4.2612 12.811 4.1377 12.9634 4.1377H13.7909C13.9433 4.1377 14.0668 4.2612 14.0668 4.41356C14.0668 4.56591 13.9433 4.68942 13.7909 4.68942Z" fill="#F3D55B"/>
    <path d="M9.65409 9.10352V10.7587C9.65409 11.2158 9.28357 11.5863 8.82651 11.5863H7.17134C6.71427 11.5863 6.34375 11.2158 6.34375 10.7587V9.10352H9.65409Z" fill="#95A5A5"/>
    <path d="M11.8572 3.86199C11.8581 4.93027 11.4143 5.95072 10.6324 6.67854C9.99239 7.2959 9.63684 8.15083 9.65029 9.03992V9.6551H6.33994V9.08682C6.35297 8.17593 5.99204 7.29952 5.34132 6.66199C4.47885 5.85113 4.03906 4.6875 4.1496 3.50889C4.34035 1.45506 6.11135 -0.0863779 8.17186 0.00801908C10.2324 0.102416 11.855 1.79932 11.8572 3.86199Z" fill="#F0C419"/>
    <path d="M7.44774 8.82755C7.29538 8.82755 7.17188 8.70404 7.17188 8.55169V7.7241C7.17188 7.57175 7.29538 7.44824 7.44774 7.44824C7.60009 7.44824 7.7236 7.57175 7.7236 7.7241V8.55169C7.7236 8.70404 7.60009 8.82755 7.44774 8.82755Z" fill="#F29C1F"/>
    <path d="M7.44774 6.62055C7.29538 6.62055 7.17188 6.49705 7.17188 6.34469V6.06883C7.17188 5.91648 7.29538 5.79297 7.44774 5.79297C7.60009 5.79297 7.7236 5.91648 7.7236 6.06883V6.34469C7.7236 6.49705 7.60009 6.62055 7.44774 6.62055Z" fill="#F29C1F"/>
    <path d="M8.5493 8.82755C8.39695 8.82755 8.27344 8.70404 8.27344 8.55169V7.7241C8.27344 7.57175 8.39695 7.44824 8.5493 7.44824C8.70165 7.44824 8.82516 7.57175 8.82516 7.7241V8.55169C8.82516 8.70404 8.70165 8.82755 8.5493 8.82755Z" fill="#F29C1F"/>
    <path d="M8.5493 6.62055C8.39695 6.62055 8.27344 6.49705 8.27344 6.34469V6.06883C8.27344 5.91648 8.39695 5.79297 8.5493 5.79297C8.70165 5.79297 8.82516 5.91648 8.82516 6.06883V6.34469C8.82516 6.49705 8.70165 6.62055 8.5493 6.62055Z" fill="#F29C1F"/>
    <path d="M5.51814 3.31059C5.50035 3.31059 5.48261 3.30884 5.46517 3.30534C5.31589 3.27616 5.21841 3.13166 5.24724 2.98231C5.50241 1.66893 6.73965 1.1459 6.79207 1.12438C6.88318 1.08678 6.98744 1.10065 7.06556 1.16075C7.14367 1.22086 7.18379 1.31808 7.1708 1.41579C7.1578 1.5135 7.09367 1.59685 7.00255 1.63445C6.99207 1.63859 5.986 2.07114 5.78876 3.08714C5.76367 3.2168 5.6502 3.31048 5.51814 3.31059Z" fill="#F9EAB0"/>
  </g>
  <defs>
    <clipPath id="clip0_5539_7634">
      <rect width="16" height="16" fill="white"/>
    </clipPath>
  </defs>
</svg>