<svg xmlns="http://www.w3.org/2000/svg" width="14" height="14" viewBox="0 0 14 14" fill="none">
  <path d="M14 7C14 7 11.375 2.1875 7 2.1875C2.625 2.1875 0 7 0 7C0 7 2.625 11.8125 7 11.8125C11.375 11.8125 14 7 14 7ZM1.02611 7C1.07592 6.92406 1.13272 6.83968 1.19636 6.74837C1.48939 6.32794 1.92177 5.76879 2.47809 5.21247C3.6059 4.08466 5.14554 3.0625 7 3.0625C8.85446 3.0625 10.3941 4.08466 11.5219 5.21247C12.0782 5.76879 12.5106 6.32794 12.8036 6.74837C12.8673 6.83968 12.9241 6.92406 12.9739 7C12.9241 7.07594 12.8673 7.16032 12.8036 7.25163C12.5106 7.67206 12.0782 8.23121 11.5219 8.78753C10.3941 9.91534 8.85446 10.9375 7 10.9375C5.14554 10.9375 3.6059 9.91534 2.47809 8.78753C1.92177 8.23121 1.48939 7.67206 1.19636 7.25163C1.13272 7.16032 1.07592 7.07594 1.02611 7Z" fill="#1E2224"/>
  <path d="M7 4.8125C5.79188 4.8125 4.8125 5.79188 4.8125 7C4.8125 8.20812 5.79188 9.1875 7 9.1875C8.20812 9.1875 9.1875 8.20812 9.1875 7C9.1875 5.79188 8.20812 4.8125 7 4.8125ZM3.9375 7C3.9375 5.30863 5.30863 3.9375 7 3.9375C8.69137 3.9375 10.0625 5.30863 10.0625 7C10.0625 8.69137 8.69137 10.0625 7 10.0625C5.30863 10.0625 3.9375 8.69137 3.9375 7Z" fill="#1E2224"/>
</svg>