<svg width="133" height="52" viewBox="0 0 133 52" fill="none" xmlns="http://www.w3.org/2000/svg">
<g clip-path="url(#clip0_6299_16626)">
<path d="M49.2257 22.7503H43.3516V9.10028H48.7905C50.0696 9.10028 51.1111 9.47078 51.9155 10.2118C52.7198 10.9528 53.122 11.8693 53.122 12.9613C53.122 13.5593 52.9901 14.0858 52.7264 14.5408C52.4758 14.9958 52.1924 15.3337 51.8759 15.5547C52.9439 16.1917 53.4779 17.2253 53.4779 18.6553C53.4779 19.8383 53.0691 20.8197 52.2517 21.5997C51.4474 22.3667 50.4388 22.7503 49.2257 22.7503ZM46.0612 11.4598V14.6968H48.5136C49.0411 14.6968 49.4761 14.5538 49.819 14.2678C50.1618 13.9818 50.3333 13.5788 50.3333 13.0588C50.3333 12.5648 50.1618 12.1748 49.819 11.8888C49.4761 11.6028 49.0411 11.4598 48.5136 11.4598H46.0612ZM46.0612 16.9587V20.3907H48.7708C49.3774 20.3907 49.8453 20.2283 50.1751 19.9033C50.5047 19.5783 50.676 19.1623 50.6892 18.6553C50.7025 18.1613 50.531 17.7583 50.1751 17.4463C49.8322 17.1213 49.3641 16.9587 48.7708 16.9587H46.0612Z" fill="#FE5C4D"/>
<path d="M66.9486 20.9167C65.5379 22.2687 63.804 22.9447 61.7471 22.9447C59.6901 22.9447 57.9628 22.2751 56.5651 20.9361C55.1675 19.5841 54.4688 17.9137 54.4688 15.9247C54.4688 13.9357 55.1675 12.2717 56.5651 10.9327C57.9628 9.58066 59.6901 8.90466 61.7471 8.90466C63.804 8.90466 65.5379 9.58066 66.9486 10.9327C68.3595 12.2717 69.0648 13.9357 69.0648 15.9247C69.0648 17.9137 68.3595 19.5777 66.9486 20.9167ZM58.6419 19.0057C59.4593 19.8507 60.4944 20.2731 61.7471 20.2731C62.9996 20.2731 64.0412 19.8572 64.8719 19.0251C65.7027 18.1801 66.118 17.1467 66.118 15.9247C66.118 14.7027 65.7027 13.6757 64.8719 12.8437C64.0412 11.9987 62.9996 11.5762 61.7471 11.5762C60.5076 11.5762 59.4726 11.9987 58.6419 12.8437C57.8112 13.6757 57.3958 14.7027 57.3958 15.9247C57.3958 17.1467 57.8112 18.1737 58.6419 19.0057Z" fill="#FE5C4D"/>
<path d="M82.6909 20.9167C81.2801 22.2687 79.5462 22.9447 77.4892 22.9447C75.4323 22.9447 73.705 22.2751 72.3074 20.9361C70.9097 19.5841 70.2109 17.9137 70.2109 15.9247C70.2109 13.9357 70.9097 12.2717 72.3074 10.9327C73.705 9.58066 75.4323 8.90466 77.4892 8.90466C79.5462 8.90466 81.2801 9.58066 82.6909 10.9327C84.1016 12.2717 84.8072 13.9357 84.8072 15.9247C84.8072 17.9137 84.1016 19.5777 82.6909 20.9167ZM74.3841 19.0057C75.2016 19.8507 76.2366 20.2731 77.4892 20.2731C78.7419 20.2731 79.7836 19.8572 80.6141 19.0251C81.4449 18.1801 81.8602 17.1467 81.8602 15.9247C81.8602 14.7027 81.4449 13.6757 80.6141 12.8437C79.7836 11.9987 78.7419 11.5762 77.4892 11.5762C76.2499 11.5762 75.2148 11.9987 74.3841 12.8437C73.5534 13.6757 73.1382 14.7027 73.1382 15.9247C73.1382 17.1467 73.5534 18.1737 74.3841 19.0057Z" fill="#FE5C4D"/>
<path d="M92.1374 15.574L98.0708 22.75H94.6887L89.4673 16.393V22.75H86.7578V9.09998H89.4673V14.833L94.669 9.09998H97.9521L92.1374 15.574Z" fill="#FE5C4D"/>
<path d="M111.877 22.8478H110.235L106.299 14.3068V22.7503H103.609V9.10034H106.715L111.066 18.5383L115.397 9.10034H118.502V22.7503H115.812V14.3068L111.877 22.8478Z" fill="#FE5C4D"/>
<path d="M127.878 22.7503H125.09V17.8948L119.789 9.10034H122.954L126.435 15.1843L129.836 9.10034H133.001L127.878 17.8363V22.7503Z" fill="#FE5C4D"/>
<path d="M47.8196 44.417H43.5234V26.9753H50.8018C52.4696 26.9753 53.8933 27.5401 55.0727 28.6696C56.2688 29.7992 56.867 31.2029 56.867 32.8805C56.867 34.5583 56.3026 35.9951 55.1738 37.1911C54.0618 38.3871 52.6044 38.9851 50.8018 38.9851H47.8196V44.417ZM47.8196 30.6381V35.1979H49.7908C50.5153 35.1979 51.1135 34.9902 51.5851 34.5749C52.0738 34.1595 52.3179 33.5949 52.3179 32.8805C52.3179 32.1829 52.0738 31.6346 51.5851 31.2361C51.1135 30.8374 50.5153 30.6381 49.7908 30.6381H47.8196Z" fill="#FE5C4D"/>
<path d="M69.8669 44.417H58.5703V26.9753H62.7401V40.5549H69.8669V44.417Z" fill="#FE5C4D"/>
<path d="M86.6054 44.417H82.107L81.1718 41.4519H74.9803L74.0452 44.417H69.5469L75.5615 26.9753H80.8181L86.6054 44.417ZM78.0887 31.6097L76.1934 37.5897H79.9588L78.0887 31.6097Z" fill="#FE5C4D"/>
<path d="M95.9514 44.4167H91.6552V38.312L84.7812 26.975H89.6587L93.677 34.126L97.5688 26.975H102.446L95.9514 38.2123V44.4167Z" fill="#FE5C4D"/>
<path d="M115.491 44.4167H103.891V26.975H115.491V30.7623H108.111V33.5779H114.758V37.3153H108.111V40.6293H115.491V44.4167Z" fill="#FE5C4D"/>
<path d="M127.116 38.3868L132.322 44.4167H127.041L122.492 38.636V44.4167H118.195V26.975H125.474C127.158 26.975 128.591 27.5149 129.77 28.5946C130.949 29.6742 131.539 31.0447 131.539 32.7058C131.539 34.0846 131.135 35.2971 130.326 36.3437C129.534 37.3901 128.464 38.0712 127.116 38.3868ZM124.716 30.7124H122.492V34.7988H124.716C125.339 34.7988 125.87 34.6243 126.308 34.2756C126.763 33.9101 126.99 33.3869 126.99 32.7058C126.99 32.0413 126.763 31.543 126.308 31.2108C125.87 30.8786 125.339 30.7124 124.716 30.7124Z" fill="#FE5C4D"/>
<path d="M37.3585 48.8772C34.2428 48.9234 31.5088 48.9696 29.1109 49.0157C29.5232 48.8619 29.5844 48.6926 29.5844 48.6926C29.5844 48.6926 29.7677 48.4466 29.1109 48.1697C28.4542 47.8928 27.8126 47.1544 27.4156 47.2006C27.0337 47.2467 26.6518 47.3852 26.4075 47.3852C26.4075 47.3852 26.8963 47.1544 27.1406 46.9237C27.1406 46.9237 25.9035 47.3082 25.1856 47.0005C25.1856 47.0005 25.7049 46.7699 26.1784 46.4622C26.1784 46.4622 26.1174 46.0315 25.5675 46.1391C25.0176 46.2314 24.6969 46.5083 24.1623 46.5391C23.6278 46.5698 23.3528 46.4776 23.3528 46.4776C23.3528 46.4776 24.0401 46.0622 24.5442 45.8776C24.9566 45.7238 25.6438 45.6468 25.6438 45.6468C25.7661 45.5853 26.1784 44.4316 28.3013 40.9859C28.6679 40.4012 29.3247 39.463 29.7981 38.7707C30.2564 38.0938 30.6382 37.2632 30.5772 36.7401C30.516 36.1865 29.9051 33.8636 28.7596 33.0637C27.6295 32.2639 27.049 31.8177 27.049 31.8177C27.049 31.8177 27.9349 32.0946 28.5764 32.5252C29.2178 32.9561 29.6913 32.9561 29.6913 32.9561C29.6913 32.9561 29.2637 32.1562 29.1109 31.8177C28.9582 31.4793 27.4309 30.7101 26.9268 30.587C26.4381 30.464 24.5136 31.6331 24.1166 32.2484C24.1776 32.0023 24.2846 31.7715 24.4067 31.6024C24.819 31.0639 26.0715 30.3409 26.0715 30.3409C26.0715 30.3409 23.582 31.0948 22.7419 32.2022C22.7419 32.2022 23.8111 30.4024 25.6591 29.6642C26.7588 29.218 27.8585 29.2795 27.8585 29.2795C27.2781 28.3258 25.3995 26.0338 25.3842 26.0338C23.7347 25.6953 20.3898 26.3414 20.3898 26.3414C20.955 25.9414 22.7266 25.6184 23.6735 25.4646C24.0401 25.4031 24.2999 25.3723 24.2999 25.3723C24.2999 25.3723 24.2999 25.28 24.2846 25.1108C24.2234 24.4031 23.8111 21.2651 23.2612 19.7268C22.4975 17.5731 21.6727 15.8964 21.6727 15.8964C21.6727 15.8964 22.7266 16.9578 23.7958 18.4654C24.5136 19.4806 24.9719 21.2804 24.9719 21.2804C24.651 17.7886 21.9783 13.7582 21.9783 13.7582C23.3987 14.8658 24.6816 16.5733 25.5216 18.0192C25.3383 14.835 24.4373 12.0661 23.246 11.2662C23.6583 11.5277 24.6663 12.1892 25.2162 13.0506C25.2162 13.0506 26.2089 11.6815 26.6977 11.1277C27.3697 10.374 28.0417 9.89711 28.0417 9.89711C28.0417 9.89711 28.0112 9.8202 27.9502 9.69714C28.057 9.58946 28.1639 9.4664 28.2862 9.34333C28.9429 8.72802 29.0804 8.37422 29.0804 8.37422C28.7444 8.60496 28.1486 8.7434 28.1486 8.7434C28.1486 8.7434 28.7749 8.2973 29.1719 7.83582C29.5691 7.38972 29.8134 7.09743 29.8134 7.09743C29.6454 7.52816 29.5385 7.97426 29.5385 7.97426C29.844 7.82043 30.6382 7.482 31.2645 6.52828C31.8906 5.55915 32.8681 4.23623 33.2653 3.7286C33.6623 3.22096 34.151 2.40567 34.151 2.40567C34.151 2.71333 34.2122 3.23634 34.2122 3.23634C34.3496 3.08251 34.9911 2.5595 35.0675 2.49796C35.2965 2.35952 35.8464 2.29799 35.938 2.23646C36.0909 2.11339 36.106 1.8365 36.106 1.8365C35.9991 1.97494 35.7395 2.00572 35.7395 2.00572C35.8158 1.86727 36.0144 1.86726 35.9685 1.51346C35.938 1.31348 35.77 1.15966 35.77 1.15966C35.77 1.15966 35.8617 1.88264 35.5868 1.89803L34.9301 1.97494C34.9301 1.97494 35.3271 1.82112 35.4188 1.63652C35.5104 1.46731 35.3882 0.959678 35.2812 0.836616C35.1591 0.728936 34.7772 0.605872 34.8384 0.590489C34.8995 0.575106 35.4188 0.405895 35.6172 0.37513C35.8158 0.344364 35.9685 0.205918 35.77 0.0982381C35.5715 -0.00944188 34.8536 0.00594119 34.8536 0.00594119C34.5176 -0.0555903 34.0595 0.37513 33.8609 0.636638C33.6623 0.898147 33.754 1.32887 33.6623 1.8365C33.5707 2.35952 32.6543 3.23634 32.6543 3.23634C32.807 2.9133 32.8834 2.40567 32.8834 2.40567C32.8834 2.40567 31.9059 3.34403 30.8062 3.69783C29.7065 4.05163 28.2709 5.40532 27.5989 6.14371C27.2781 6.49751 26.8198 6.75902 26.3464 6.98976C26.9726 7.28203 27.2629 8.17425 27.385 8.57419C27.4156 8.68187 27.4309 8.75879 27.4462 8.77417C27.4462 8.77417 26.9421 8.1127 26.4228 7.80505C26.0868 7.60508 25.7661 7.46662 25.5063 7.3897C25.3079 7.32818 25.155 7.28203 25.0635 7.26665L22.8031 8.00503C22.7266 7.86658 22.5586 7.7589 22.5586 7.7589C22.5433 8.17423 22.2226 9.38949 21.5812 10.0663C21.459 10.2048 21.2757 10.3432 21.1077 10.4663C20.8786 10.5586 20.6647 10.2048 20.7105 10.0817C20.7411 10.0048 21.0771 9.94327 21.0771 9.94327C21.0771 9.94327 20.9091 9.86636 20.7717 9.86636C20.5884 9.86636 20.4051 9.85097 20.4051 9.85097C20.4051 9.85097 20.7105 9.68176 20.9397 9.66637C21.1687 9.65099 21.5047 9.57407 21.5047 9.57407C21.5047 9.57407 21.2604 9.48179 21.0466 9.42026C20.8176 9.35872 20.4663 9.32796 20.4663 9.32796C20.4663 9.32796 20.4663 9.32796 20.6037 9.1895C20.7411 9.05106 21.1077 8.82032 21.1077 8.82032L20.6953 7.55892C20.6953 7.55892 20.5273 7.43586 20.3288 7.40509C20.1302 7.37433 19.5192 7.14359 19.5192 7.14359L20.3592 7.15896L20.0385 5.63607C20.0385 5.63607 20.6343 5.74375 20.9856 5.66684C21.3216 5.60529 22.131 5.09767 22.131 5.09767L22.6198 6.23599C22.6198 6.23599 22.5892 5.57454 22.5433 5.29764C22.4975 5.02075 22.2379 3.9901 22.1158 3.77474C21.9019 3.43631 21.4437 3.23634 21.4437 3.23634C20.1759 2.71333 18.1751 2.88253 17.4574 4.14393C17.2435 4.5285 17.0602 5.09767 17.3353 6.00525C17.5184 6.57442 17.6407 6.74364 17.6407 6.74364C17.6407 6.74364 17.1672 6.78978 17.152 6.97438C17.1367 7.17435 17.2435 7.74352 17.5033 8.0204C17.7628 8.2973 18.1294 8.55882 18.1294 8.55882C18.1294 8.55882 18.1294 8.5588 18.2821 9.00492C18.328 9.12797 18.389 9.2818 18.4654 9.43563C18.1904 9.74329 17.7323 10.1894 17.2741 10.4355C16.5409 10.8201 15.4872 11.4816 15.426 11.5277C15.1206 11.7123 14.8762 11.8815 14.7387 12.0353C15.1664 11.8661 15.6552 11.7123 16.0675 11.5739C16.5409 11.42 16.9075 11.3123 16.9075 11.3123C16.9075 11.3123 16.7701 11.42 16.5409 11.5892C16.2661 11.7892 15.8689 12.0507 15.3649 12.343C14.4944 12.8353 13.4405 13.8351 12.9365 14.4658C12.2492 15.3888 11.6382 16.2041 11.6382 16.2041C11.6382 16.2041 11.8826 16.3118 12.1881 16.4809C11.9743 17.1117 11.5008 18.5268 11.2411 18.9269C10.9051 19.4345 10.5386 20.0651 10.5386 20.0651L10.9204 19.9729C11.4092 19.9574 11.8368 20.2652 11.8368 20.2652C11.8368 20.2652 10.6302 20.8343 9.91237 21.8189C9.19452 22.8034 9.17925 24.0647 9.17925 24.0647C8.99597 23.8801 8.52249 23.4341 8.27812 23.1879C8.26285 23.2341 8.24757 23.2802 8.2323 23.3263C8.21703 23.3572 8.20176 23.3879 8.20176 23.4187C8.30866 23.8801 8.49194 24.6339 8.65995 24.9262C9.0876 25.6492 9.91237 26.1875 9.91237 26.1875C9.91237 26.1875 8.18649 25.4184 7.69773 24.7569C7.69773 24.7569 7.95739 25.5877 8.38504 26.1415C8.30866 26.126 8.2323 26.0953 8.15594 26.0645C7.86574 25.9569 7.57556 25.7415 7.33117 25.4953C7.30063 25.9569 7.40755 26.1875 7.63665 26.3414C7.91156 26.526 7.95739 26.6953 8.24757 26.726C8.53777 26.7568 8.41558 26.7568 8.79741 26.9875C9.17925 27.2029 9.02651 26.8029 9.42362 26.9106C9.82072 27.0336 9.85126 26.7875 9.85126 26.7875C9.85126 26.7875 10.1567 26.9875 10.2942 26.8182C10.4164 26.6336 10.3858 26.3568 10.4775 25.8338C10.5691 25.3107 10.4316 25.3261 10.172 25.0184C9.92764 24.7109 9.65271 24.3417 9.65271 24.3417C9.65271 24.3417 9.75963 23.8186 10.1873 23.3417C10.6149 22.8494 11.3633 22.388 11.791 21.9726C12.2645 21.5266 12.2797 21.1112 12.5546 20.7113C12.8448 20.096 12.7685 19.9422 13.0587 19.3576C13.1045 19.2499 13.8529 18.5577 13.746 18.3269C13.4558 17.7577 13.135 17.2501 12.8601 16.8656C12.9518 16.9271 13.0434 17.004 13.1198 17.0655C13.6849 17.5424 14.2652 18.1423 14.2652 18.1423C14.2652 18.1423 14.7387 17.5885 15.1511 17.1579C15.1511 17.1579 15.9453 16.4502 17.3657 14.8042C17.3657 14.8042 16.6936 16.4964 16.3425 17.3117C16.3425 17.327 16.3272 17.3425 16.3272 17.3578C16.9381 16.9116 17.5795 16.3733 17.5795 16.3733C17.5795 16.3733 16.0522 18.8346 15.7009 20.2806C15.6705 20.8035 15.9147 22.4342 15.7467 23.3879C15.8385 23.3417 15.9147 23.311 16.0065 23.2802C17.1367 22.8649 18.6792 22.8956 18.6792 22.8956C18.2822 22.9572 17.7934 23.1109 17.2894 23.311C16.3576 23.6802 15.3954 24.234 14.9984 24.6954L14.9525 24.7262C14.7235 25.0646 14.5402 25.3723 14.4485 25.5722C14.4485 25.5722 14.9678 25.1415 15.8689 24.88L15.8536 24.8955C16.3272 24.7569 17.2435 24.5416 18.3584 24.3877C19.7178 24.2185 21.459 24.5263 22.0546 24.6492C22.192 24.6801 22.2685 24.6954 22.2685 24.6954C22.2226 24.6954 22.192 24.6954 22.1463 24.6954C20.4051 24.5877 19.1832 24.6339 17.4421 25.1415C16.9381 25.2954 16.2202 25.603 15.5634 25.9107L15.5482 25.8952C15.5482 25.8952 15.0595 26.126 14.5554 26.3876C14.3263 26.4952 14.0973 26.6183 13.9292 26.726C13.8071 26.8029 13.7001 26.8644 13.6238 26.9106C13.3947 27.0798 13.1197 28.0028 12.9212 28.7412C12.1423 29.9102 11.2259 31.2485 11.2259 31.2485C11.2259 31.2485 10.0651 32.8022 9.83599 33.2791C9.83599 33.2791 9.28615 33.5099 8.43085 34.0482C8.43085 34.0482 8.99597 33.2176 9.79018 32.9406C9.79018 32.9406 9.05706 32.7407 8.70577 32.9406C8.70577 32.9406 8.88905 32.3715 9.65271 32.2177C9.65271 32.2177 9.0876 31.3869 8.38504 30.987C8.14067 30.8485 7.9421 30.6486 7.75884 30.4333C7.63665 29.9564 7.92683 29.8795 8.09484 29.4796C8.29339 28.9565 8.12538 28.6026 7.65192 28.4182C7.17844 28.2488 5.80384 28.5873 5.80384 28.5873C5.80384 28.5873 6.52169 28.1257 7.07153 28.0797C7.07153 28.0797 5.68167 27.9566 4.32235 27.6028C3.19212 27.3106 2.29099 27.3413 1.45096 27.6643C0.748391 27.9258 1.16077 28.7104 1.55787 29.0027C1.95498 29.295 2.47427 29.541 2.47427 29.541C2.47427 29.541 2.27572 28.9872 2.93247 28.7104C2.93247 28.7104 2.67283 29.3103 2.81029 29.7718L3.10047 29.941C3.10047 29.941 2.96301 29.2026 3.66559 28.8796C3.66559 28.8796 3.3143 29.6795 3.43649 30.1256L3.94051 30.3102C3.94051 30.3102 3.97106 29.218 4.67362 28.9565C4.67362 28.9565 4.29179 29.9255 4.56672 30.4024C4.70418 30.6332 4.94855 30.7563 5.33038 30.8178C5.43728 30.9409 5.5442 31.0486 5.62056 31.1563C5.88022 31.5715 6.01767 33.156 6.62861 34.2943C7.23954 35.4174 8.27812 37.1093 9.36253 37.4325C10.4469 37.7401 11.6535 37.0786 12.631 36.2172L13.5321 35.3557C13.5321 35.3557 12.6768 35.0789 12.0964 34.3712C12.0964 34.3712 12.6768 34.4944 13.0281 34.602C13.3794 34.725 14.2805 34.8019 14.2805 34.8019C14.2805 34.8019 12.9976 33.8944 12.5699 33.5406C12.3255 33.3406 12.127 32.5714 12.0048 31.9716C12.8448 32.7715 14.1431 33.9867 14.7082 34.3559C15.7926 35.0634 16.2661 34.9865 16.2661 34.9865C16.2661 34.9865 18.328 32.5407 19.0152 32.0023C19.0152 32.0023 17.0297 32.2946 15.5024 32.3406C15.5024 32.3406 17.7628 31.6024 18.9236 31.0639C18.9236 31.0639 17.2741 30.8332 16.5105 31.0178C16.5105 31.0178 18.496 30.5255 19.8858 29.8795C21.2757 29.2488 23.8874 28.3412 24.6969 28.3565C24.6969 28.3565 21.8103 29.1411 20.8327 30.2794C20.8327 30.2794 21.8713 30.0948 22.4518 30.1871C22.4518 30.1871 20.4663 31.5869 20.2065 31.9561C20.2065 31.9561 21.795 33.6328 22.6961 34.5404C23.5973 35.4481 24.9413 35.7096 24.9413 35.7096C24.9413 35.7096 24.5747 35.2635 24.2234 34.2174C24.086 33.8174 24.0248 33.4175 24.0096 33.0483C24.1013 33.4329 24.3456 33.8636 24.6359 34.3405C25.0023 34.9096 26.4381 36.4326 26.5603 36.6479C27.4003 36.0019 28.0265 36.0019 28.0265 36.0019C27.6446 36.248 26.8045 37.0786 26.8045 37.0786C26.8045 37.0786 25.4148 38.7862 24.9719 39.7707C24.5289 40.7704 23.9791 42.8318 23.7041 43.3549C23.7041 43.3549 25.5063 40.709 26.1174 39.709C26.1174 39.709 25.1093 42.0781 24.315 43.5702C23.5667 44.9854 23.1085 45.8161 22.8947 46.1853C22.7419 46.4469 22.6045 46.6929 22.3906 47.0929C22.3753 47.0929 22.3753 47.1082 22.3601 47.1236C22.2532 47.3082 22.1463 47.5083 22.0699 47.6774C22.0393 47.7389 22.0087 47.8005 21.9935 47.862C21.963 47.9542 21.5047 48.7696 22.131 49.0618C11.8826 49.2312 11.8368 49.2312 11.119 49.2464C10.4316 50.1233 9.3778 50.6771 8.17121 50.6771C7.46864 50.6771 6.79661 50.4772 6.23151 50.1387C6.70497 50.3693 7.22427 50.4925 7.77411 50.4925C8.8585 50.4925 9.82072 50.0156 10.4775 49.2619C11.0426 48.6157 11.3939 47.7696 11.3939 46.8314C11.3939 45.6008 10.7982 44.5239 9.88182 43.8625C9.85126 43.8625 7.34645 43.7548 6.10932 45.6008C6.10932 45.6008 6.26205 44.2009 7.14789 43.401C7.209 43.3394 7.27009 43.2934 7.33117 43.2472C7.19373 43.3087 7.07153 43.3856 6.93407 43.4625C5.74276 44.2009 4.918 45.5084 4.918 47.6774C4.918 47.6774 4.50563 46.5698 4.88746 45.17C4.97909 44.8316 5.11656 44.4777 5.31511 44.124C4.59726 44.7855 4.13907 45.7545 4.13907 46.8159C4.13907 48.1236 4.82636 49.2619 5.84968 49.9079L0 52L37.3585 48.8772Z" fill="#FE5C4D"/>
<path d="M22.5742 6.98987C22.5742 6.98987 22.3299 7.14382 21.9786 7.25158C21.612 7.37474 21.0469 7.46712 21.0469 7.46712C21.0469 7.46712 21.1845 7.75962 21.5509 7.82121C21.7495 7.852 22.3299 7.66726 22.3299 7.66726C22.1925 7.66726 22.0092 7.57488 22.0092 7.57488C22.2076 7.49791 22.5742 6.98987 22.5742 6.98987Z" fill="#141414"/>
</g>
<defs>
<clipPath id="clip0_6299_16626">
<rect width="133" height="52" fill="white"/>
</clipPath>
</defs>
</svg>
