<svg xmlns="http://www.w3.org/2000/svg" width="10" height="10" viewBox="0 0 10 10" fill="none">
  <path d="M6.95357 0H5.58603L3.24219 1.875H4.60971L6.95357 0Z" fill="#D83C38"/>
  <path d="M9.31678 0H7.92978L5.58594 1.875H6.95346L9.31678 0Z" fill="#D83C38"/>
  <path d="M7.92969 1.87458H10.0002V0.312078C10.0002 0.287974 9.99217 0.266682 9.98734 0.244141L7.92969 1.87458Z" fill="#D83C38"/>
  <path d="M0.875 1.875H2.26205L4.60592 0H3.23838L0.875 1.875Z" fill="#D83C38"/>
  <path d="M0 9.6875C0 9.86023 0.131035 10 0.292969 10H9.70703C9.86897 10 10 9.86023 10 9.6875V2.5H0V9.6875ZM3.53516 4.0625C3.53516 3.9499 3.5918 3.84613 3.68365 3.79058C3.77551 3.73504 3.88822 3.73656 3.97891 3.79454L6.90859 5.66954C6.99672 5.726 7.05078 5.82763 7.05078 5.93748C7.05078 6.04733 6.9967 6.14896 6.90859 6.20542L3.97891 8.08042C3.88816 8.13837 3.77541 8.13987 3.68365 8.08437C3.5918 8.02887 3.53516 7.9251 3.53516 7.8125V4.0625Z" fill="#D83C38"/>
  <path d="M0.292969 0C0.131035 0 0 0.139771 0 0.3125V1.79702L2.26594 0H0.292969Z" fill="#D83C38"/>
  <path d="M4.125 4.61426V7.26013L6.19238 5.9372L4.125 4.61426Z" fill="#D83C38"/>
</svg>