<svg xmlns="http://www.w3.org/2000/svg" width="18" height="18" viewBox="0 0 18 18" fill="none">
  <g clip-path="url(#clip0_6017_10546)">
    <path fill-rule="evenodd" clip-rule="evenodd" d="M4.16278 4.77665C4.25285 4.96849 4.44421 5.09136 4.65648 5.09136H7.30828V6.0281C7.30828 6.32946 7.55272 6.57359 7.85503 6.57359C8.15576 6.57359 8.4002 6.32946 8.4002 6.0281V5.09136H8.65107C8.95338 5.09136 9.19621 4.84724 9.19621 4.54574C9.19621 4.24456 8.95338 4.00043 8.65107 4.00043H8.4002V0.726927C8.4002 0.497463 8.25708 0.292572 8.04157 0.214595C7.8261 0.136127 7.58327 0.20092 7.43692 0.376842L4.23837 4.19562C4.10164 4.35786 4.07271 4.58466 4.16278 4.77665ZM18 8.96548C18 11.3687 17.0642 13.6301 15.3648 15.3295C13.6652 17.0291 11.4035 17.9655 9 17.9655C6.59647 17.9655 4.33477 17.0291 2.63521 15.3295C0.935789 13.6301 0 11.3687 0 8.96548C0 8.51386 0.366188 8.14711 0.817875 8.14711C1.27041 8.14711 1.63575 8.51312 1.63575 8.96548C1.63575 13.0253 4.94033 16.3291 8.99996 16.3291C13.0596 16.3291 16.3642 13.0253 16.3642 8.96548C16.3642 5.28311 13.6151 2.14067 9.96177 1.66426C9.51479 1.60597 9.1993 1.19419 9.25699 0.747459C9.31475 0.300306 9.72696 -0.0167678 10.1739 0.0415916C12.328 0.322877 14.3034 1.37778 15.7429 3.00453C17.1994 4.65051 18 6.76769 18 8.96548ZM7.30825 2.22792V4.0004H5.82557L7.30825 2.22792ZM10.0694 13.8146C9.907 14.0682 9.98096 14.4058 10.235 14.568C10.3251 14.6262 10.428 14.6542 10.5277 14.6542C10.7078 14.6542 10.8831 14.5656 10.9876 14.403L14.384 9.10185C14.4917 8.93363 14.4982 8.72058 14.4033 8.54575C14.3068 8.37077 14.1235 8.26207 13.9241 8.26207H10.8236C10.5212 8.26207 10.2785 8.5062 10.2785 8.80756C10.2785 9.10892 10.5213 9.35304 10.8236 9.35304H12.927L10.0694 13.8146ZM12.9254 3.79136C13.1377 4.00444 13.1377 4.34985 12.9254 4.56297L4.88482 12.6036C4.7771 12.71 4.6388 12.7632 4.49888 12.7632C4.35899 12.7632 4.21907 12.71 4.11293 12.6036C3.90066 12.3905 3.90066 12.0452 4.11293 11.8322L12.1535 3.79136C12.3658 3.57828 12.7116 3.57828 12.9254 3.79136ZM3.35711 2.64864C3.49541 2.14306 3.40857 1.76193 3.09818 1.51619C2.74922 1.24102 2.17192 1.19264 1.77954 1.40569C1.48205 1.56762 1.35018 1.84743 1.38878 2.2371C1.41613 2.53716 1.19742 2.80382 0.896695 2.83244C0.597586 2.86074 0.330645 2.64154 0.301676 2.34179C0.222891 1.512 0.570234 0.821638 1.25852 0.447752C2.02883 0.0277049 3.08696 0.117459 3.77522 0.660834C4.43134 1.18041 4.66291 2.00974 4.41042 2.93601C4.23995 3.56126 3.6546 4.01717 2.97918 4.54525C2.61253 4.83054 2.21854 5.13767 1.88888 5.48262H4.1483C4.44902 5.48262 4.69347 5.72671 4.69347 6.0281C4.69347 6.32946 4.44902 6.57359 4.1483 6.57359H0.829125C0.642586 6.57359 0.467297 6.47677 0.367594 6.31758C0.267891 6.15836 0.256641 5.95895 0.33866 5.78981C0.782508 4.87494 1.593 4.2428 2.30699 3.68543C2.7862 3.31102 3.28314 2.92409 3.35711 2.64864Z" fill="#FE5C4D"/>
  </g>
  <defs>
    <clipPath id="clip0_6017_10546">
      <rect width="18" height="18" fill="white"/>
    </clipPath>
  </defs>
</svg>